<svg width="24" height="24" viewBox="0 0 24 24" fill="none" xmlns="http://www.w3.org/2000/svg">
<rect x="0.315063" y="0.0742188" width="23" height="23" rx="3" fill="#59A5F1"/>
<path d="M19.4719 7.07812L14.0825 11.5659L19.4811 15.1587V7.17927C19.4811 7.14478 19.4775 7.11112 19.4719 7.07812Z" fill="white"/>
<path d="M13.5956 11.9707L12.9162 12.5364C12.5971 12.8022 12.2058 12.9351 11.8146 12.9351C11.4234 12.9351 11.0321 12.8022 10.713 12.5364L10.0336 11.9707L4.14905 15.887V15.9677C4.14905 16.3019 4.42096 16.5738 4.75516 16.5738H18.874C19.2082 16.5738 19.4801 16.3019 19.4801 15.9677V15.887L13.5956 11.9707Z" fill="white"/>
<path d="M18.8773 6.57422C18.8766 6.57422 18.8758 6.57422 18.8751 6.57422H4.75625C4.7555 6.57422 4.75478 6.57422 4.75403 6.57422C4.66845 6.57455 4.63141 6.68357 4.69717 6.73834L10.2451 11.3581C10.2458 11.3587 10.2464 11.3593 10.2471 11.3598L11.1019 12.0716C11.5155 12.416 12.1159 12.416 12.5295 12.0716L18.9342 6.73834C18.9999 6.68354 18.9629 6.57452 18.8773 6.57422Z" fill="white"/>
<path d="M4.15818 7.07812C4.15261 7.11112 4.14905 7.14472 4.14905 7.17927V15.1587L9.54759 11.5659L4.15818 7.07812Z" fill="white"/>
</svg>
