<svg width="24" height="24" viewBox="0 0 24 24" fill="none" xmlns="http://www.w3.org/2000/svg">
<rect x="0.476074" y="0.0742188" width="23" height="23" rx="3" fill="#00E676"/>
<g clip-path="url(#clip0)">
<path d="M17.5997 5.9012C16.1346 4.393 14.1093 3.57422 12.0408 3.57422C7.64544 3.57422 4.11185 7.15087 4.1549 11.5032C4.1549 12.8821 4.54273 14.218 5.18916 15.4246L4.06873 19.5184L8.24868 18.4411C9.41217 19.0875 10.7049 19.3891 11.9977 19.3891C16.3501 19.3891 19.8836 15.8124 19.8836 11.4602C19.8836 9.34861 19.0649 7.36634 17.5998 5.9012H17.5997ZM12.0408 18.0533C10.8773 18.0533 9.71382 17.7517 8.72269 17.1484L8.46415 17.0191L5.96482 17.6655L6.61118 15.2092L6.43883 14.9507C4.54273 11.8911 5.44769 7.84035 8.55033 5.94426C11.653 4.04823 15.6606 4.95318 17.5567 8.05582C19.4527 11.1585 18.5477 15.1661 15.4452 17.0622C14.454 17.7085 13.2474 18.0532 12.0408 18.0532V18.0533ZM15.8329 13.2701L15.3589 13.0546C15.3589 13.0546 14.6695 12.753 14.2385 12.5375C14.1954 12.5375 14.1524 12.4944 14.1093 12.4944C13.98 12.4944 13.8938 12.5375 13.8076 12.5806C13.8076 12.5806 13.7645 12.6237 13.1612 13.3132C13.1181 13.3993 13.0319 13.4425 12.9458 13.4425H12.9026C12.8596 13.4425 12.7734 13.3993 12.7303 13.3563L12.5148 13.2701C12.0408 13.0546 11.6099 12.796 11.2651 12.4513C11.179 12.3651 11.0497 12.279 10.9635 12.1928C10.6618 11.8911 10.3602 11.5464 10.1448 11.1585L10.1017 11.0724C10.0586 11.0292 10.0586 10.9862 10.0155 10.9C10.0155 10.8138 10.0155 10.7276 10.0586 10.6845C10.0586 10.6845 10.2309 10.469 10.3602 10.3398C10.4464 10.2536 10.4895 10.1243 10.5757 10.0382C10.6618 9.90886 10.705 9.7365 10.6618 9.60721C10.6188 9.39173 10.1017 8.22824 9.97242 7.96971C9.88618 7.84041 9.80006 7.79735 9.67076 7.75423H9.19676C9.11052 7.75423 9.0244 7.79735 8.93816 7.79735L8.89504 7.84041C8.80886 7.88353 8.72269 7.96971 8.63651 8.01277C8.55033 8.09901 8.50721 8.18512 8.42103 8.27136C8.11938 8.65919 7.94703 9.1332 7.94703 9.60721C7.94703 9.95192 8.0332 10.2967 8.1625 10.5983L8.20562 10.7276C8.59345 11.5464 9.11052 12.279 9.80006 12.9253L9.97242 13.0977C10.1017 13.227 10.2309 13.3132 10.3171 13.4424C11.2221 14.2181 12.2563 14.7783 13.4198 15.0799C13.5491 15.123 13.7214 15.123 13.8507 15.1661H14.2816C14.4971 15.1661 14.7556 15.0799 14.928 14.9938C15.0573 14.9076 15.1434 14.9076 15.2296 14.8214L15.3159 14.7352C15.402 14.649 15.4882 14.6059 15.5744 14.5198C15.6606 14.4336 15.7467 14.3474 15.7899 14.2612C15.876 14.0888 15.9191 13.8733 15.9622 13.6579V13.3563C15.9622 13.3563 15.9191 13.3132 15.8329 13.2701Z" fill="white"/>
</g>
<defs>
<clipPath id="clip0">
<rect width="15.8147" height="16" fill="white" transform="translate(4.06873 3.57422)"/>
</clipPath>
</defs>
</svg>
